<svg version="1.1" xmlns="http://www.w3.org/2000/svg" xmlns:xlink="http://www.w3.org/1999/xlink" width="1820" height="976"><defs/><g><g transform="translate(-150,-78) scale(1,1)"><rect fill="#C0C0C0" stroke="none" x="839" y="831" width="209.50341796875" height="220" opacity="0.2"/></g><g transform="translate(-150,-78) scale(1,1)"><rect fill="#fcfcaf" stroke="none" x="832" y="824" width="209.50341796875" height="220"/></g><g transform="translate(-150,-78) scale(1,1)"><path fill="none" stroke="#700000" d="M 832 824 L 1041.50341796875 824 L 1041.50341796875 1044 L 832 1044 L 832 824 Z Z" stroke-miterlimit="10"/></g><g transform="translate(-150,-78) scale(1,1)"><path fill="none" stroke="#700000" d="M 832 849 L 1041.50341796875 849" stroke-miterlimit="10"/></g><g transform="translate(-150,-78) scale(1,1)"><path fill="none" stroke="#700000" d="M 832 917 L 1041.50341796875 917" stroke-miterlimit="10"/></g><g transform="translate(-150,-78) scale(1,1)"><g><path fill="none" stroke="none"/><text fill="#000000" stroke="none" font-family="Arial" font-size="13px" font-style="normal" font-weight="bold" text-decoration="none" x="925.554443359375" y="843.5">Cell</text></g></g><g transform="translate(-150,-78) scale(1,1)"><g><path fill="none" stroke="none"/><text fill="#000000" stroke="none" font-family="Arial" font-size="13px" font-style="normal" font-weight="normal" text-decoration="none" x="837" y="866.5">-_visited: bool</text></g></g><g transform="translate(-150,-78) scale(1,1)"><g><path fill="none" stroke="none"/><text fill="#000000" stroke="none" font-family="Arial" font-size="13px" font-style="normal" font-weight="normal" text-decoration="none" x="837" y="881.5">-_status: bool[]</text></g></g><g transform="translate(-150,-78) scale(1,1)"><g><path fill="none" stroke="none"/><text fill="#000000" stroke="none" font-family="Arial" font-size="13px" font-style="normal" font-weight="normal" text-decoration="none" x="837" y="896.5">-_xPos: int</text></g></g><g transform="translate(-150,-78) scale(1,1)"><g><path fill="none" stroke="none"/><text fill="#000000" stroke="none" font-family="Arial" font-size="13px" font-style="normal" font-weight="normal" text-decoration="none" x="837" y="911.5">-_yPos: int</text></g></g><g transform="translate(-150,-78) scale(1,1)"><g><path fill="none" stroke="none"/><text fill="#000000" stroke="none" font-family="Arial" font-size="13px" font-style="normal" font-weight="normal" text-decoration="none" x="837" y="934.5">+New(xPos: int, yPos: int)</text></g></g><g transform="translate(-150,-78) scale(1,1)"><g><path fill="none" stroke="none"/><text fill="#000000" stroke="none" font-family="Arial" font-size="13px" font-style="normal" font-weight="normal" text-decoration="none" x="837" y="949.5">+Reset()</text></g></g><g transform="translate(-150,-78) scale(1,1)"><g><path fill="none" stroke="none"/><text fill="#000000" stroke="none" font-family="Arial" font-size="13px" font-style="normal" font-weight="normal" text-decoration="none" x="837" y="964.5">+SetVisited(visited: bool)</text></g></g><g transform="translate(-150,-78) scale(1,1)"><g><path fill="none" stroke="none"/><text fill="#000000" stroke="none" font-family="Arial" font-size="13px" font-style="normal" font-weight="normal" text-decoration="none" x="837" y="979.5">+SetStatus(index: int, status: bool)</text></g></g><g transform="translate(-150,-78) scale(1,1)"><g><path fill="none" stroke="none"/><text fill="#000000" stroke="none" font-family="Arial" font-size="13px" font-style="normal" font-weight="normal" text-decoration="none" x="837" y="994.5">+SetxPos(xPos: int)</text></g></g><g transform="translate(-150,-78) scale(1,1)"><g><path fill="none" stroke="none"/><text fill="#000000" stroke="none" font-family="Arial" font-size="13px" font-style="normal" font-weight="normal" text-decoration="none" x="837" y="1009.5">+SetyPos(yPos: int)</text></g></g><g transform="translate(-150,-78) scale(1,1)"><g><path fill="none" stroke="none"/><text fill="#000000" stroke="none" font-family="Arial" font-size="13px" font-style="normal" font-weight="normal" text-decoration="none" x="837" y="1024.5">+GetxPos()</text></g></g><g transform="translate(-150,-78) scale(1,1)"><g><path fill="none" stroke="none"/><text fill="#000000" stroke="none" font-family="Arial" font-size="13px" font-style="normal" font-weight="normal" text-decoration="none" x="837" y="1039.5">+GetyPos()</text></g></g><g transform="translate(-150,-78) scale(1,1)"><rect fill="#C0C0C0" stroke="none" x="863" y="487" width="145.91259765625" height="130" opacity="0.2"/></g><g transform="translate(-150,-78) scale(1,1)"><rect fill="#fcfcaf" stroke="none" x="856" y="480" width="145.91259765625" height="130"/></g><g transform="translate(-150,-78) scale(1,1)"><path fill="none" stroke="#700000" d="M 856 480 L 1001.91259765625 480 L 1001.91259765625 610 L 856 610 L 856 480 Z Z" stroke-miterlimit="10"/></g><g transform="translate(-150,-78) scale(1,1)"><path fill="none" stroke="#700000" d="M 856 518 L 1001.91259765625 518" stroke-miterlimit="10"/></g><g transform="translate(-150,-78) scale(1,1)"><path fill="none" stroke="#700000" d="M 856 528 L 1001.91259765625 528" stroke-miterlimit="10"/></g><g transform="translate(-150,-78) scale(1,1)"><g><path fill="none" stroke="none"/><text fill="#000000" stroke="none" font-family="Arial" font-size="13px" font-style="normal" font-weight="normal" text-decoration="none" x="896.7958984375" y="497.5">«interface»</text></g></g><g transform="translate(-150,-78) scale(1,1)"><g><path fill="none" stroke="none"/><text fill="#000000" stroke="none" font-family="Arial" font-size="13px" font-style="normal" font-weight="bold" text-decoration="none" x="899.6904296875" y="512.5">Generator</text></g></g><g transform="translate(-150,-78) scale(1,1)"><g><path fill="none" stroke="none"/><text fill="#000000" stroke="none" font-family="Arial" font-size="13px" font-style="normal" font-weight="normal" text-decoration="none" x="861" y="545.5">+Generate()</text></g></g><g transform="translate(-150,-78) scale(1,1)"><g><path fill="none" stroke="none"/><text fill="#000000" stroke="none" font-family="Arial" font-size="13px" font-style="normal" font-weight="normal" text-decoration="none" x="861" y="560.5">+Build()</text></g></g><g transform="translate(-150,-78) scale(1,1)"><g><path fill="none" stroke="none"/><text fill="#000000" stroke="none" font-family="Arial" font-size="13px" font-style="normal" font-weight="normal" text-decoration="none" x="861" y="575.5">+Destroy()</text></g></g><g transform="translate(-150,-78) scale(1,1)"><g><path fill="none" stroke="none"/><text fill="#000000" stroke="none" font-family="Arial" font-size="13px" font-style="normal" font-weight="normal" text-decoration="none" x="861" y="590.5">+SetWidth(width: int)</text></g></g><g transform="translate(-150,-78) scale(1,1)"><g><path fill="none" stroke="none"/><text fill="#000000" stroke="none" font-family="Arial" font-size="13px" font-style="normal" font-weight="normal" text-decoration="none" x="861" y="605.5">+SetHeight(height: int)</text></g></g><g transform="translate(-150,-78) scale(1,1)"><rect fill="#C0C0C0" stroke="none" x="487" y="463" width="183.51611328125" height="175" opacity="0.2"/></g><g transform="translate(-150,-78) scale(1,1)"><rect fill="#fcfcaf" stroke="none" x="480" y="456" width="183.51611328125" height="175"/></g><g transform="translate(-150,-78) scale(1,1)"><path fill="none" stroke="#700000" d="M 480 456 L 663.51611328125 456 L 663.51611328125 631 L 480 631 L 480 456 Z Z" stroke-miterlimit="10"/></g><g transform="translate(-150,-78) scale(1,1)"><path fill="none" stroke="#700000" d="M 480 481 L 663.51611328125 481" stroke-miterlimit="10"/></g><g transform="translate(-150,-78) scale(1,1)"><path fill="none" stroke="#700000" d="M 480 549 L 663.51611328125 549" stroke-miterlimit="10"/></g><g transform="translate(-150,-78) scale(1,1)"><g><path fill="none" stroke="none"/><text fill="#000000" stroke="none" font-family="Arial" font-size="13px" font-style="normal" font-weight="bold" text-decoration="none" x="491.917236328125" y="475.5">DepthFirstSearchGenerator</text></g></g><g transform="translate(-150,-78) scale(1,1)"><g><path fill="none" stroke="none"/><text fill="#000000" stroke="none" font-family="Arial" font-size="13px" font-style="normal" font-weight="normal" text-decoration="none" x="485" y="498.5">-_size: Vector2</text></g></g><g transform="translate(-150,-78) scale(1,1)"><g><path fill="none" stroke="none"/><text fill="#000000" stroke="none" font-family="Arial" font-size="13px" font-style="normal" font-weight="normal" text-decoration="none" x="485" y="513.5">-_board: Board</text></g></g><g transform="translate(-150,-78) scale(1,1)"><g><path fill="none" stroke="none"/><text fill="#000000" stroke="none" font-family="Arial" font-size="13px" font-style="normal" font-weight="normal" text-decoration="none" x="485" y="528.5">+room: GameObject</text></g></g><g transform="translate(-150,-78) scale(1,1)"><g><path fill="none" stroke="none"/><text fill="#000000" stroke="none" font-family="Arial" font-size="13px" font-style="normal" font-weight="normal" text-decoration="none" x="485" y="543.5">+spawnLocation: GameObject</text></g></g><g transform="translate(-150,-78) scale(1,1)"><g><path fill="none" stroke="none"/><text fill="#000000" stroke="none" font-family="Arial" font-size="13px" font-style="normal" font-weight="normal" text-decoration="none" x="485" y="566.5">+Generate()</text></g></g><g transform="translate(-150,-78) scale(1,1)"><g><path fill="none" stroke="none"/><text fill="#000000" stroke="none" font-family="Arial" font-size="13px" font-style="normal" font-weight="normal" text-decoration="none" x="485" y="581.5">+Build()</text></g></g><g transform="translate(-150,-78) scale(1,1)"><g><path fill="none" stroke="none"/><text fill="#000000" stroke="none" font-family="Arial" font-size="13px" font-style="normal" font-weight="normal" text-decoration="none" x="485" y="596.5">+Destroy()</text></g></g><g transform="translate(-150,-78) scale(1,1)"><g><path fill="none" stroke="none"/><text fill="#000000" stroke="none" font-family="Arial" font-size="13px" font-style="normal" font-weight="normal" text-decoration="none" x="485" y="611.5">+SetWidth(width: int)</text></g></g><g transform="translate(-150,-78) scale(1,1)"><g><path fill="none" stroke="none"/><text fill="#000000" stroke="none" font-family="Arial" font-size="13px" font-style="normal" font-weight="normal" text-decoration="none" x="485" y="626.5">+SetHeight(height: int)</text></g></g><g transform="translate(-150,-78) scale(1,1)"><path fill="none" stroke="#700000" d="M 665 544 L 855 545" stroke-miterlimit="10" stroke-dasharray="3"/></g><g transform="translate(-150,-78) scale(1,1)"><path fill="#FFFFFF" stroke="none" d="M 834.63062169393 553.3119448641221 L 855 545 L 834.7192418929544 536.4741070494931"/></g><g transform="translate(-150,-78) scale(1,1)"><path fill="none" stroke="#700000" d="M 834.63062169393 553.3119448641221 L 855 545 L 834.7192418929544 536.4741070494931 L 834.63062169393 553.3119448641221" stroke-miterlimit="10"/></g><g transform="translate(-150,-78) scale(1,1)"><g><path fill="none" stroke="none"/><text fill="#000000" stroke="none" font-family="Arial" font-size="13px" font-style="normal" font-weight="normal" text-decoration="none" x="728.160400390625" y="532.5">{T , D}</text></g></g><g transform="translate(-150,-78) scale(1,1)"><rect fill="#C0C0C0" stroke="none" x="375" y="887" width="178.66015625" height="100" opacity="0.2"/></g><g transform="translate(-150,-78) scale(1,1)"><rect fill="#fcfcaf" stroke="none" x="368" y="880" width="178.66015625" height="100"/></g><g transform="translate(-150,-78) scale(1,1)"><path fill="none" stroke="#700000" d="M 368 880 L 546.66015625 880 L 546.66015625 980 L 368 980 L 368 880 Z Z" stroke-miterlimit="10"/></g><g transform="translate(-150,-78) scale(1,1)"><path fill="none" stroke="#700000" d="M 368 905 L 546.66015625 905" stroke-miterlimit="10"/></g><g transform="translate(-150,-78) scale(1,1)"><path fill="none" stroke="#700000" d="M 368 928 L 546.66015625 928" stroke-miterlimit="10"/></g><g transform="translate(-150,-78) scale(1,1)"><g><path fill="none" stroke="none"/><text fill="#000000" stroke="none" font-family="Arial" font-size="13px" font-style="normal" font-weight="bold" text-decoration="none" x="439.985107421875" y="899.5">Board</text></g></g><g transform="translate(-150,-78) scale(1,1)"><g><path fill="none" stroke="none"/><text fill="#000000" stroke="none" font-family="Arial" font-size="13px" font-style="normal" font-weight="normal" text-decoration="none" x="373" y="922.5">-_size: Vector2</text></g></g><g transform="translate(-150,-78) scale(1,1)"><g><path fill="none" stroke="none"/><text fill="#000000" stroke="none" font-family="Arial" font-size="13px" font-style="normal" font-weight="normal" text-decoration="none" x="373" y="945.5">+New(size: Vector2)</text></g></g><g transform="translate(-150,-78) scale(1,1)"><g><path fill="none" stroke="none"/><text fill="#000000" stroke="none" font-family="Arial" font-size="13px" font-style="normal" font-weight="normal" text-decoration="none" x="373" y="960.5">+CheckNeighbors()</text></g></g><g transform="translate(-150,-78) scale(1,1)"><g><path fill="none" stroke="none"/><text fill="#000000" stroke="none" font-family="Arial" font-size="13px" font-style="normal" font-weight="normal" text-decoration="none" x="373" y="975.5">+GetBoard()</text></g></g><g transform="translate(-150,-78) scale(1,1)"><rect fill="#C0C0C0" stroke="none" x="1415" y="199" width="120" height="70" opacity="0.2"/></g><g transform="translate(-150,-78) scale(1,1)"><rect fill="#fcfcaf" stroke="none" x="1408" y="192" width="120" height="70"/></g><g transform="translate(-150,-78) scale(1,1)"><path fill="none" stroke="#700000" d="M 1408 192 L 1528 192 L 1528 262 L 1408 262 L 1408 192 Z Z" stroke-miterlimit="10"/></g><g transform="translate(-150,-78) scale(1,1)"><path fill="none" stroke="#700000" d="M 1408 230 L 1528 230" stroke-miterlimit="10"/></g><g transform="translate(-150,-78) scale(1,1)"><path fill="none" stroke="#700000" d="M 1408 240 L 1528 240" stroke-miterlimit="10"/></g><g transform="translate(-150,-78) scale(1,1)"><g><path fill="none" stroke="none"/><text fill="#000000" stroke="none" font-family="Arial" font-size="13px" font-style="normal" font-weight="normal" text-decoration="none" x="1435.839599609375" y="209.5">«interface»</text></g></g><g transform="translate(-150,-78) scale(1,1)"><g><path fill="none" stroke="none"/><text fill="#000000" stroke="none" font-family="Arial" font-size="13px" font-style="normal" font-weight="bold" text-decoration="none" x="1436.57275390625" y="224.5">iCommand</text></g></g><g transform="translate(-150,-78) scale(1,1)"><g><path fill="none" stroke="none"/><text fill="#000000" stroke="none" font-family="Arial" font-size="13px" font-style="normal" font-weight="normal" text-decoration="none" x="1413" y="257.5">+Execute()</text></g></g><g transform="translate(-150,-78) scale(1,1)"><rect fill="#C0C0C0" stroke="none" x="991" y="303" width="172.66162109375" height="72" opacity="0.2"/></g><g transform="translate(-150,-78) scale(1,1)"><rect fill="#fcfcaf" stroke="none" x="984" y="296" width="172.66162109375" height="72"/></g><g transform="translate(-150,-78) scale(1,1)"><path fill="none" stroke="#700000" d="M 984 296 L 1156.66162109375 296 L 1156.66162109375 368 L 984 368 L 984 296 Z Z" stroke-miterlimit="10"/></g><g transform="translate(-150,-78) scale(1,1)"><path fill="none" stroke="#700000" d="M 984 321 L 1156.66162109375 321" stroke-miterlimit="10"/></g><g transform="translate(-150,-78) scale(1,1)"><path fill="none" stroke="#700000" d="M 984 331 L 1156.66162109375 331" stroke-miterlimit="10"/></g><g transform="translate(-150,-78) scale(1,1)"><g><path fill="none" stroke="none"/><text fill="#000000" stroke="none" font-family="Arial" font-size="13px" font-style="normal" font-weight="bold" text-decoration="none" x="1013.246337890625" y="315.5">GenerateCommand</text></g></g><g transform="translate(-150,-78) scale(1,1)"><g><path fill="none" stroke="none"/><text fill="#000000" stroke="none" font-family="Arial" font-size="13px" font-style="normal" font-weight="normal" text-decoration="none" x="989" y="348.5">+New(generator: Generator)</text></g></g><g transform="translate(-150,-78) scale(1,1)"><g><path fill="none" stroke="none"/><text fill="#000000" stroke="none" font-family="Arial" font-size="13px" font-style="normal" font-weight="normal" text-decoration="none" x="989" y="363.5">+Execute()</text></g></g><g transform="translate(-150,-78) scale(1,1)"><path fill="none" stroke="#700000" d="M 1158 309 L 1407 243" stroke-miterlimit="10" stroke-dasharray="3"/></g><g transform="translate(-150,-78) scale(1,1)"><path fill="#FFFFFF" stroke="none" d="M 1389.5101648462762 256.34562348845367 L 1407 243 L 1385.196038093119 240.0695998288151"/></g><g transform="translate(-150,-78) scale(1,1)"><path fill="none" stroke="#700000" d="M 1389.5101648462762 256.34562348845367 L 1407 243 L 1385.196038093119 240.0695998288151 L 1389.5101648462762 256.34562348845367" stroke-miterlimit="10"/></g><g transform="translate(-150,-78) scale(1,1)"><g><path fill="none" stroke="none"/><text fill="#000000" stroke="none" font-family="Arial" font-size="13px" font-style="normal" font-weight="normal" text-decoration="none" x="1418.63720703125" y="320.5">{T , D}</text></g></g><g transform="translate(-150,-78) scale(1,1)"><path fill="none" stroke="#700000" d="M 472 879 L 545 632" stroke-miterlimit="10"/></g><g transform="translate(-150,-78) scale(1,1)"><path fill="#700000" stroke="none" d="M 546.1565216681181 642.9390336698985 L 545 632 L 538.0827194265023 640.5528492017287 L 538.7645994930521 653.0978619892621"/></g><g transform="translate(-150,-78) scale(1,1)"><path fill="none" stroke="#700000" d="M 546.1565216681181 642.9390336698985 L 545 632 L 538.0827194265023 640.5528492017287 L 538.7645994930521 653.0978619892621 L 546.1565216681181 642.9390336698985" stroke-miterlimit="10"/></g><g transform="translate(-150,-78) scale(1,1)"><path fill="none" stroke="#700000" d="M 831 933 L 548 931" stroke-miterlimit="10"/></g><g transform="translate(-150,-78) scale(1,1)"><path fill="#700000" stroke="none" d="M 558.1921695818093 926.862406591309 L 548 931 L 558.1326725833787 935.2812318692223 L 569.9994506317734 931.1554731493411"/></g><g transform="translate(-150,-78) scale(1,1)"><path fill="none" stroke="#700000" d="M 558.1921695818093 926.862406591309 L 548 931 L 558.1326725833787 935.2812318692223 L 569.9994506317734 931.1554731493411 L 558.1921695818093 926.862406591309" stroke-miterlimit="10"/></g><g transform="translate(-150,-78) scale(1,1)"><rect fill="#C0C0C0" stroke="none" x="1207" y="351" width="172.66162109375" height="72" opacity="0.2"/></g><g transform="translate(-150,-78) scale(1,1)"><rect fill="#fcfcaf" stroke="none" x="1200" y="344" width="172.66162109375" height="72"/></g><g transform="translate(-150,-78) scale(1,1)"><path fill="none" stroke="#700000" d="M 1200 344 L 1372.66162109375 344 L 1372.66162109375 416 L 1200 416 L 1200 344 Z Z" stroke-miterlimit="10"/></g><g transform="translate(-150,-78) scale(1,1)"><path fill="none" stroke="#700000" d="M 1200 369 L 1372.66162109375 369" stroke-miterlimit="10"/></g><g transform="translate(-150,-78) scale(1,1)"><path fill="none" stroke="#700000" d="M 1200 379 L 1372.66162109375 379" stroke-miterlimit="10"/></g><g transform="translate(-150,-78) scale(1,1)"><g><path fill="none" stroke="none"/><text fill="#000000" stroke="none" font-family="Arial" font-size="13px" font-style="normal" font-weight="bold" text-decoration="none" x="1233.953125" y="363.5">DestroyCommand</text></g></g><g transform="translate(-150,-78) scale(1,1)"><g><path fill="none" stroke="none"/><text fill="#000000" stroke="none" font-family="Arial" font-size="13px" font-style="normal" font-weight="normal" text-decoration="none" x="1205" y="396.5">+New(generator: Generator)</text></g></g><g transform="translate(-150,-78) scale(1,1)"><g><path fill="none" stroke="none"/><text fill="#000000" stroke="none" font-family="Arial" font-size="13px" font-style="normal" font-weight="normal" text-decoration="none" x="1205" y="411.5">+Execute()</text></g></g><g transform="translate(-150,-78) scale(1,1)"><path fill="none" stroke="#700000" d="M 1330 343 L 1425 263" stroke-miterlimit="10" stroke-dasharray="3"/></g><g transform="translate(-150,-78) scale(1,1)"><path fill="#FFFFFF" stroke="none" d="M 1414.8759141154758 282.53209883762565 L 1425 263 L 1404.029910678847 269.6524697566289"/></g><g transform="translate(-150,-78) scale(1,1)"><path fill="none" stroke="#700000" d="M 1414.8759141154758 282.53209883762565 L 1425 263 L 1404.029910678847 269.6524697566289 L 1414.8759141154758 282.53209883762565" stroke-miterlimit="10"/></g><g transform="translate(-150,-78) scale(1,1)"><rect fill="#C0C0C0" stroke="none" x="1399" y="367" width="264" height="72" opacity="0.2"/></g><g transform="translate(-150,-78) scale(1,1)"><rect fill="#fcfcaf" stroke="none" x="1392" y="360" width="264" height="72"/></g><g transform="translate(-150,-78) scale(1,1)"><path fill="none" stroke="#700000" d="M 1392 360 L 1656 360 L 1656 432 L 1392 432 L 1392 360 Z Z" stroke-miterlimit="10"/></g><g transform="translate(-150,-78) scale(1,1)"><path fill="none" stroke="#700000" d="M 1392 385 L 1656 385" stroke-miterlimit="10"/></g><g transform="translate(-150,-78) scale(1,1)"><path fill="none" stroke="#700000" d="M 1392 395 L 1656 395" stroke-miterlimit="10"/></g><g transform="translate(-150,-78) scale(1,1)"><g><path fill="none" stroke="none"/><text fill="#000000" stroke="none" font-family="Arial" font-size="13px" font-style="normal" font-weight="bold" text-decoration="none" x="1452.458740234375" y="379.5">ChangeHeightCommand</text></g></g><g transform="translate(-150,-78) scale(1,1)"><g><path fill="none" stroke="none"/><text fill="#000000" stroke="none" font-family="Arial" font-size="13px" font-style="normal" font-weight="normal" text-decoration="none" x="1397" y="412.5">+New(generator: Generator, slider: Slider)</text></g></g><g transform="translate(-150,-78) scale(1,1)"><g><path fill="none" stroke="none"/><text fill="#000000" stroke="none" font-family="Arial" font-size="13px" font-style="normal" font-weight="normal" text-decoration="none" x="1397" y="427.5">+Execute()</text></g></g><g transform="translate(-150,-78) scale(1,1)"><rect fill="#C0C0C0" stroke="none" x="1703" y="407" width="264" height="72" opacity="0.2"/></g><g transform="translate(-150,-78) scale(1,1)"><rect fill="#fcfcaf" stroke="none" x="1696" y="400" width="264" height="72"/></g><g transform="translate(-150,-78) scale(1,1)"><path fill="none" stroke="#700000" d="M 1696 400 L 1960 400 L 1960 472 L 1696 472 L 1696 400 Z Z" stroke-miterlimit="10"/></g><g transform="translate(-150,-78) scale(1,1)"><path fill="none" stroke="#700000" d="M 1696 425 L 1960 425" stroke-miterlimit="10"/></g><g transform="translate(-150,-78) scale(1,1)"><path fill="none" stroke="#700000" d="M 1696 435 L 1960 435" stroke-miterlimit="10"/></g><g transform="translate(-150,-78) scale(1,1)"><g><path fill="none" stroke="none"/><text fill="#000000" stroke="none" font-family="Arial" font-size="13px" font-style="normal" font-weight="bold" text-decoration="none" x="1758.6328125" y="419.5">ChangeWidthCommand</text></g></g><g transform="translate(-150,-78) scale(1,1)"><g><path fill="none" stroke="none"/><text fill="#000000" stroke="none" font-family="Arial" font-size="13px" font-style="normal" font-weight="normal" text-decoration="none" x="1701" y="452.5">+New(generator: Generator, slider: Slider)</text></g></g><g transform="translate(-150,-78) scale(1,1)"><g><path fill="none" stroke="none"/><text fill="#000000" stroke="none" font-family="Arial" font-size="13px" font-style="normal" font-weight="normal" text-decoration="none" x="1701" y="467.5">+Execute()</text></g></g><g transform="translate(-150,-78) scale(1,1)"><path fill="none" stroke="#700000" d="M 1512 359 L 1480 263" stroke-miterlimit="10" stroke-dasharray="3"/></g><g transform="translate(-150,-78) scale(1,1)"><path fill="#FFFFFF" stroke="none" d="M 1494.4144383099228 279.61998700990557 L 1480 263 L 1478.440441558005 284.9446525938781"/></g><g transform="translate(-150,-78) scale(1,1)"><path fill="none" stroke="#700000" d="M 1494.4144383099228 279.61998700990557 L 1480 263 L 1478.440441558005 284.9446525938781 L 1494.4144383099228 279.61998700990557" stroke-miterlimit="10"/></g><g transform="translate(-150,-78) scale(1,1)"><path fill="none" stroke="#700000" d="M 1764 399 L 1529 262" stroke-miterlimit="10" stroke-dasharray="3"/></g><g transform="translate(-150,-78) scale(1,1)"><path fill="#FFFFFF" stroke="none" d="M 1550.7995012339932 264.9634010780059 L 1529 262 L 1542.3191341514078 279.5100161466746"/></g><g transform="translate(-150,-78) scale(1,1)"><path fill="none" stroke="#700000" d="M 1550.7995012339932 264.9634010780059 L 1529 262 L 1542.3191341514078 279.5100161466746 L 1550.7995012339932 264.9634010780059" stroke-miterlimit="10"/></g><g transform="translate(-150,-78) scale(1,1)"><path fill="none" stroke="#700000" d="M 1206 417 L 1003 510" stroke-miterlimit="10" stroke-dasharray="3"/></g><g transform="translate(-150,-78) scale(1,1)"><path fill="none" stroke="#700000" d="M 1010.4859821485744 501.9402189067428 L 1003 510 L 1013.9925146070196 509.59426287517715" stroke-miterlimit="10"/></g><g transform="translate(-150,-78) scale(1,1)"><path fill="none" stroke="#700000" d="M 1045 369 L 972 479" stroke-miterlimit="10" stroke-dasharray="3"/></g><g transform="translate(-150,-78) scale(1,1)"><path fill="none" stroke="#700000" d="M 974.1120326795084 468.2046622118301 L 972 479 L 981.1268891849824 472.8599760745537" stroke-miterlimit="10"/></g><g transform="translate(-150,-78) scale(1,1)"><path fill="none" stroke="#700000" d="M 1391 429 L 1003 526" stroke-miterlimit="10" stroke-dasharray="3"/></g><g transform="translate(-150,-78) scale(1,1)"><path fill="none" stroke="#700000" d="M 1011.8382847744828 519.4513572211375 L 1003 526 L 1013.8802008145965 527.6190213815926" stroke-miterlimit="10"/></g><g transform="translate(-150,-78) scale(1,1)"><path fill="none" stroke="#700000" d="M 1695 452 L 1003 536" stroke-miterlimit="10" stroke-dasharray="3"/></g><g transform="translate(-150,-78) scale(1,1)"><path fill="none" stroke="#700000" d="M 1012.5813610025452 530.5965269188321 L 1003 536 L 1013.5958777955489 538.9542128802432" stroke-miterlimit="10"/></g><g transform="translate(-150,-78) scale(1,1)"><rect fill="#C0C0C0" stroke="none" x="1087" y="95" width="104.3291015625" height="72" opacity="0.2"/></g><g transform="translate(-150,-78) scale(1,1)"><rect fill="#fcfcaf" stroke="none" x="1080" y="88" width="104.3291015625" height="72"/></g><g transform="translate(-150,-78) scale(1,1)"><path fill="none" stroke="#700000" d="M 1080 88 L 1184.3291015625 88 L 1184.3291015625 160 L 1080 160 L 1080 88 Z Z" stroke-miterlimit="10"/></g><g transform="translate(-150,-78) scale(1,1)"><path fill="none" stroke="#700000" d="M 1080 113 L 1184.3291015625 113" stroke-miterlimit="10"/></g><g transform="translate(-150,-78) scale(1,1)"><path fill="none" stroke="#700000" d="M 1080 123 L 1184.3291015625 123" stroke-miterlimit="10"/></g><g transform="translate(-150,-78) scale(1,1)"><g><path fill="none" stroke="none"/><text fill="#000000" stroke="none" font-family="Arial" font-size="13px" font-style="normal" font-weight="bold" text-decoration="none" x="1087.71826171875" y="107.5">ButtonManager</text></g></g><g transform="translate(-150,-78) scale(1,1)"><g><path fill="none" stroke="none"/><text fill="#000000" stroke="none" font-family="Arial" font-size="13px" font-style="normal" font-weight="normal" text-decoration="none" x="1085" y="140.5">+Create()</text></g></g><g transform="translate(-150,-78) scale(1,1)"><g><path fill="none" stroke="none"/><text fill="#000000" stroke="none" font-family="Arial" font-size="13px" font-style="normal" font-weight="normal" text-decoration="none" x="1085" y="155.5">+Destroy()</text></g></g><g transform="translate(-150,-78) scale(1,1)"><path fill="none" stroke="#700000" d="M 1121 161 L 1081 295" stroke-miterlimit="10" stroke-dasharray="3"/></g><g transform="translate(-150,-78) scale(1,1)"><path fill="none" stroke="#700000" d="M 1079.8732461013503 284.05786009722607 L 1081 295 L 1087.9405260034798 286.4660033515931" stroke-miterlimit="10"/></g><g transform="translate(-150,-78) scale(1,1)"><path fill="none" stroke="#700000" d="M 1154 161 L 1264 343" stroke-miterlimit="10" stroke-dasharray="3"/></g><g transform="translate(-150,-78) scale(1,1)"><path fill="none" stroke="#700000" d="M 1255.1406366657743 336.47990174060413 L 1264 343 L 1262.345889802595 332.1250784161521" stroke-miterlimit="10"/></g><g transform="translate(-150,-78) scale(1,1)"><rect fill="#C0C0C0" stroke="none" x="1487" y="687" width="281.07958984375" height="100" opacity="0.2"/></g><g transform="translate(-150,-78) scale(1,1)"><rect fill="#fcfcaf" stroke="none" x="1480" y="680" width="281.07958984375" height="100"/></g><g transform="translate(-150,-78) scale(1,1)"><path fill="none" stroke="#700000" d="M 1480 680 L 1761.07958984375 680 L 1761.07958984375 780 L 1480 780 L 1480 680 Z Z" stroke-miterlimit="10"/></g><g transform="translate(-150,-78) scale(1,1)"><path fill="none" stroke="#700000" d="M 1480 705 L 1761.07958984375 705" stroke-miterlimit="10"/></g><g transform="translate(-150,-78) scale(1,1)"><path fill="none" stroke="#700000" d="M 1480 743 L 1761.07958984375 743" stroke-miterlimit="10"/></g><g transform="translate(-150,-78) scale(1,1)"><g><path fill="none" stroke="none"/><text fill="#000000" stroke="none" font-family="Arial" font-size="13px" font-style="normal" font-weight="bold" text-decoration="none" x="1578.267578125" y="699.5">SliderManager</text></g></g><g transform="translate(-150,-78) scale(1,1)"><g><path fill="none" stroke="none"/><text fill="#000000" stroke="none" font-family="Arial" font-size="13px" font-style="normal" font-weight="normal" text-decoration="none" x="1485" y="722.5">+sliderWidth: Slider</text></g></g><g transform="translate(-150,-78) scale(1,1)"><g><path fill="none" stroke="none"/><text fill="#000000" stroke="none" font-family="Arial" font-size="13px" font-style="normal" font-weight="normal" text-decoration="none" x="1485" y="737.5">+sliderHeight: Slider</text></g></g><g transform="translate(-150,-78) scale(1,1)"><g><path fill="none" stroke="none"/><text fill="#000000" stroke="none" font-family="Arial" font-size="13px" font-style="normal" font-weight="normal" text-decoration="none" x="1485" y="760.5">+ChangeWidth(width: int)</text></g></g><g transform="translate(-150,-78) scale(1,1)"><g><path fill="none" stroke="none"/><text fill="#000000" stroke="none" font-family="Arial" font-size="13px" font-style="normal" font-weight="normal" text-decoration="none" x="1485" y="775.5">+ChangeHeight(height: int)</text></g></g><g transform="translate(-150,-78) scale(1,1)"><path fill="none" stroke="#700000" d="M 1605 679 L 1535 433" stroke-miterlimit="10" stroke-dasharray="3"/></g><g transform="translate(-150,-78) scale(1,1)"><path fill="none" stroke="#700000" d="M 1541.830195971354 441.6225531597608 L 1535 433 L 1533.732612077769 443.9267436985857" stroke-miterlimit="10"/></g><g transform="translate(-150,-78) scale(1,1)"><path fill="none" stroke="#700000" d="M 1656 679 L 1802 473" stroke-miterlimit="10" stroke-dasharray="3"/></g><g transform="translate(-150,-78) scale(1,1)"><path fill="none" stroke="#700000" d="M 1799.5579785208624 483.72550843062606 L 1802 473 L 1792.6891503093293 478.8573097952677" stroke-miterlimit="10"/></g><g transform="translate(-150,-78) scale(1,1)"><rect fill="#C0C0C0" stroke="none" x="575" y="127" width="96.3818359375" height="57" opacity="0.2"/></g><g transform="translate(-150,-78) scale(1,1)"><rect fill="#fcfcaf" stroke="none" x="568" y="120" width="96.3818359375" height="57"/></g><g transform="translate(-150,-78) scale(1,1)"><path fill="none" stroke="#700000" d="M 568 120 L 664.3818359375 120 L 664.3818359375 177 L 568 177 L 568 120 Z Z" stroke-miterlimit="10"/></g><g transform="translate(-150,-78) scale(1,1)"><path fill="none" stroke="#700000" d="M 568 145 L 664.3818359375 145" stroke-miterlimit="10"/></g><g transform="translate(-150,-78) scale(1,1)"><path fill="none" stroke="#700000" d="M 568 155 L 664.3818359375 155" stroke-miterlimit="10"/></g><g transform="translate(-150,-78) scale(1,1)"><g><path fill="none" stroke="none"/><text fill="#000000" stroke="none" font-family="Arial" font-size="13px" font-style="normal" font-weight="bold" text-decoration="none" x="576.4482421875" y="139.5">AppController</text></g></g><g transform="translate(-150,-78) scale(1,1)"><g><path fill="none" stroke="none"/><text fill="#000000" stroke="none" font-family="Arial" font-size="13px" font-style="normal" font-weight="normal" text-decoration="none" x="573" y="172.5">+Start()</text></g></g><g transform="translate(-150,-78) scale(1,1)"><path fill="none" stroke="#700000" d="M 665 168 L 983 297" stroke-miterlimit="10" stroke-dasharray="3"/></g><g transform="translate(-150,-78) scale(1,1)"><path fill="none" stroke="#700000" d="M 972.0002949123361 297.0805480255669 L 983 297 L 975.1650778863713 289.27898999655025" stroke-miterlimit="10"/></g><g transform="translate(-150,-78) scale(1,1)"><rect fill="#C0C0C0" stroke="none" x="167" y="367" width="192" height="70" opacity="0.2"/></g><g transform="translate(-150,-78) scale(1,1)"><rect fill="#fcfcaf" stroke="none" x="160" y="360" width="192" height="70"/></g><g transform="translate(-150,-78) scale(1,1)"><path fill="none" stroke="#700000" d="M 160 360 L 352 360 L 352 430 L 160 430 L 160 360 Z Z" stroke-miterlimit="10"/></g><g transform="translate(-150,-78) scale(1,1)"><path fill="none" stroke="#700000" d="M 160 385 L 352 385" stroke-miterlimit="10"/></g><g transform="translate(-150,-78) scale(1,1)"><path fill="none" stroke="#700000" d="M 160 408 L 352 408" stroke-miterlimit="10"/></g><g transform="translate(-150,-78) scale(1,1)"><g><path fill="none" stroke="none"/><text fill="#000000" stroke="none" font-family="Arial" font-size="13px" font-style="normal" font-weight="bold" text-decoration="none" x="210.484130859375" y="379.5">RoomController</text></g></g><g transform="translate(-150,-78) scale(1,1)"><g><path fill="none" stroke="none"/><text fill="#000000" stroke="none" font-family="Arial" font-size="13px" font-style="normal" font-weight="normal" text-decoration="none" x="165" y="402.5">+walls: GameObject[]</text></g></g><g transform="translate(-150,-78) scale(1,1)"><g><path fill="none" stroke="none"/><text fill="#000000" stroke="none" font-family="Arial" font-size="13px" font-style="normal" font-weight="normal" text-decoration="none" x="165" y="425.5">+UpdateRoom(status: bool[4])</text></g></g><g transform="translate(-150,-78) scale(1,1)"><path fill="none" stroke="#700000" d="M 479 500 L 333 431" stroke-miterlimit="10" stroke-dasharray="3"/></g><g transform="translate(-150,-78) scale(1,1)"><path fill="none" stroke="#700000" d="M 343.98690924557144 431.5364934571609 L 333 431 L 340.3895598702041 439.1482761934454" stroke-miterlimit="10"/></g></g></svg>